<svg width="36" height="36" viewBox="0 0 36 36" fill="none" xmlns="http://www.w3.org/2000/svg">
<rect opacity="0.1" width="36" height="36" rx="12" fill="#DF1D1D"/>
<path opacity="0.4" fill-rule="evenodd" clip-rule="evenodd" d="M15.1378 11.5139H20.8966V10.1731H15.1378V11.5139ZM13.8278 10.2282V10.2348C13.3783 10.2757 12.9335 10.365 12.5009 10.4993V10.4943C12.488 10.4997 12.4759 10.5039 12.4643 10.5079L12.4643 10.5079C12.449 10.5131 12.4346 10.5181 12.4205 10.5252C12.3859 10.5335 12.3521 10.5461 12.32 10.5619C12.2251 10.5928 12.1302 10.6295 12.0409 10.667C12.0172 10.6762 11.9935 10.6869 11.9697 10.6975L11.9697 10.6975C11.946 10.7081 11.9223 10.7188 11.8986 10.7279C11.866 10.7434 11.832 10.7603 11.798 10.7772C11.7641 10.7941 11.7301 10.811 11.6975 10.8264L11.5367 10.919C11.5069 10.9342 11.4794 10.952 11.4513 10.9701C11.4346 10.9809 11.4177 10.9919 11.4 11.0025C11.1579 11.1585 10.9335 11.3412 10.7309 11.549L10.7188 11.5615C10.6922 11.5925 10.6657 11.6226 10.6396 11.6523C10.5954 11.7025 10.5523 11.7515 10.5113 11.8018L10.4993 11.8135C9.84146 12.7212 9.51175 13.8401 9.56884 14.974V15.3337H10.8676V14.9707C10.8676 13.3904 11.371 12.4067 12.4912 11.9027C12.9191 11.7217 13.371 11.6099 13.831 11.569H13.8431V10.234L13.8278 10.2282ZM25.4981 11.7968L25.5037 11.8085C26.1607 12.7171 26.4889 13.8368 26.431 14.9707V15.3337H25.133V14.9615C25.1603 14.2924 25.026 13.6265 24.7414 13.025C24.4679 12.5102 24.0305 12.1105 23.5021 11.8936C23.0815 11.7125 22.636 11.5999 22.1817 11.5598V10.2315C22.6312 10.2732 23.0759 10.3617 23.5094 10.496V10.4893C23.5337 10.5004 23.5523 10.5069 23.5842 10.5182L23.5898 10.5202C23.6046 10.5254 23.6184 10.5307 23.632 10.5358C23.651 10.543 23.6697 10.5501 23.6903 10.5569C23.7792 10.5861 23.8624 10.6205 23.9479 10.6558L23.9629 10.662C24.0024 10.6759 24.0396 10.6931 24.0731 10.7086C24.084 10.7136 24.0944 10.7184 24.1045 10.7229C24.1752 10.7538 24.2476 10.7905 24.3055 10.8214C24.3441 10.8414 24.3817 10.8629 24.417 10.883C24.4361 10.8939 24.4545 10.9043 24.472 10.914C24.5008 10.9299 24.5258 10.9469 24.5499 10.9633C24.5675 10.9753 24.5846 10.9869 24.6022 10.9974C24.8451 11.1543 25.0719 11.3379 25.277 11.544L25.2842 11.5565C25.3598 11.6324 25.4314 11.7125 25.4981 11.7968Z" fill="#DF1D1D"/>
<path d="M22.2188 9.29712V12.2517C22.2188 12.624 21.9167 12.9255 21.5438 12.9255C21.1709 12.9255 20.8688 12.624 20.8688 12.2517V9.30386C20.8654 8.93159 21.1658 8.62754 21.5387 8.62502C21.9117 8.62249 22.2163 8.92148 22.2188 9.29375V9.29712Z" fill="#DF1D1D"/>
<path d="M15.1312 9.30778V12.255C15.1312 12.6289 14.8288 12.9321 14.4558 12.9321C14.0828 12.9321 13.7812 12.6289 13.7812 12.255V9.30778C13.7812 8.9339 14.0828 8.63159 14.4558 8.63159C14.8288 8.63159 15.1312 8.9339 15.1312 9.30778Z" fill="#DF1D1D"/>
<path fill-rule="evenodd" clip-rule="evenodd" d="M9.5625 22.6032V15.3336H26.4375V22.6032C26.4375 25.7733 24.6671 27.3749 21.1585 27.3749H14.8334C11.3329 27.3749 9.5625 25.7733 9.5625 22.6032ZM13.3688 19.3751C13.3688 19.8149 13.7149 20.1717 14.1414 20.1717C14.5759 20.1717 14.922 19.8066 14.9139 19.3668C14.9139 18.9269 14.5679 18.5701 14.1494 18.5701H14.1414C13.7149 18.5701 13.3688 18.9352 13.3688 19.3751ZM17.2235 19.3751C17.2235 19.8149 17.5775 20.1717 18.004 20.1717C18.4305 20.1717 18.7766 19.8149 18.7766 19.3668C18.7766 18.9352 18.4305 18.5784 18.004 18.5701H17.996C17.5695 18.5784 17.2235 18.9352 17.2235 19.3751ZM21.8587 20.1717C21.4321 20.1717 21.0861 19.8149 21.0861 19.3751C21.0861 18.9352 21.4241 18.5784 21.8587 18.5784C22.2852 18.5784 22.6312 18.9352 22.6312 19.3751C22.6312 19.8149 22.2852 20.1717 21.8587 20.1717ZM21.8587 23.5742C21.4322 23.5742 21.0861 23.2173 21.0781 22.7775C21.0781 22.3377 21.4241 21.9808 21.8506 21.9808H21.8587C22.2852 21.9808 22.6312 22.3377 22.6312 22.7775C22.6312 23.2173 22.2852 23.5742 21.8587 23.5742ZM18.004 23.5742C17.5775 23.5742 17.2235 23.2173 17.2235 22.7775C17.2235 22.3377 17.5695 21.9808 17.996 21.9725H18.004C18.4305 21.9808 18.7685 22.3377 18.7766 22.7692C18.7766 23.2173 18.4305 23.5742 18.004 23.5742ZM14.1414 23.5742C13.7149 23.5742 13.3688 23.2173 13.3688 22.7775C13.3608 22.3377 13.7068 21.9725 14.1414 21.9725C14.5679 21.9725 14.9139 22.3294 14.9139 22.7692C14.9139 23.209 14.5679 23.5742 14.1414 23.5742Z" fill="#DF1D1D"/>
</svg>
