<svg width="25" height="18" viewBox="0 0 25 18" fill="none" xmlns="http://www.w3.org/2000/svg">
<path d="M23.3929 7.17535H20.5V4.13249C20.5 3.65838 20.117 3.27535 19.6429 3.27535H11.2054L8.06339 0.269988C8.02342 0.232562 7.97083 0.211529 7.91607 0.21106H1.10714C0.633036 0.21106 0.25 0.594095 0.25 1.0682V16.9253C0.25 17.3995 0.633036 17.7825 1.10714 17.7825H19.8036C20.1518 17.7825 20.4679 17.5709 20.5991 17.2468L24.1884 8.35392C24.2286 8.25213 24.25 8.14231 24.25 8.03249C24.25 7.55838 23.867 7.17535 23.3929 7.17535ZM2.17857 2.13963H7.22768L10.4313 5.20392H18.5714V7.17535H4.91071C4.5625 7.17535 4.24643 7.38695 4.11518 7.71106L2.17857 12.5111V2.13963ZM19.1955 15.8539H2.79464L5.56161 8.99677H21.9652L19.1955 15.8539Z" fill="#9E9E9E"/>
</svg>
