<svg width="25" height="24" viewBox="0 0 25 24" fill="none" xmlns="http://www.w3.org/2000/svg">
<path d="M24.3898 11.811L14.0398 1.46631L13.3461 0.772562C13.188 0.615535 12.9743 0.527405 12.7514 0.527405C12.5286 0.527405 12.3149 0.615535 12.1568 0.772562L1.11306 11.811C0.951087 11.9723 0.823079 12.1644 0.73659 12.3761C0.650101 12.5877 0.606882 12.8145 0.609486 13.0431C0.6202 13.986 1.40502 14.7386 2.34788 14.7386H3.48627V23.4627H22.0166V14.7386H23.1791C23.6372 14.7386 24.0684 14.5592 24.3925 14.2351C24.5521 14.076 24.6786 13.8868 24.7645 13.6785C24.8505 13.4703 24.8943 13.247 24.8934 13.0217C24.8934 12.5663 24.7139 12.1351 24.3898 11.811V11.811ZM14.2514 21.5342H11.2514V16.0699H14.2514V21.5342ZM20.0881 12.8101V21.5342H15.9657V15.427C15.9657 14.8351 15.4863 14.3556 14.8943 14.3556H10.6086C10.0166 14.3556 9.53716 14.8351 9.53716 15.427V21.5342H5.41484V12.8101H2.84341L12.7541 2.90738L13.3729 3.52613L22.6622 12.8101H20.0881Z" fill="#D50000"/>
</svg>
