<svg width="303" height="304" xmlns="http://www.w3.org/2000/svg" xmlns:xlink="http://www.w3.org/1999/xlink" xml:space="preserve" overflow="hidden"><g transform="translate(-647 -136)"><path d="M278.381 56.1812C277.434 48.9219 270.175 43.2406 255.972 38.8219 254.394 38.5062 252.816 39.4531 252.5 40.7156 252.184 42.2937 252.816 43.8719 254.394 44.1875 265.756 47.6594 272.069 51.7625 272.7 56.4969 273.331 60.9156 266.703 66.2812 265.756 66.9125 265.756 66.9125 265.756 66.9125 265.756 66.9125 265.756 66.9125 265.756 66.9125 265.756 66.9125 267.65 63.7563 268.281 60.2844 267.65 56.8125 265.441 47.6594 257.866 47.975 252.184 48.2906 247.45 48.6062 242.716 48.6062 239.559 45.1344 238.612 43.8719 236.719 43.8719 235.456 45.1344 234.194 46.0813 234.194 47.975 235.456 49.2375 240.506 54.6031 247.134 54.2875 252.5 54.2875 258.812 53.9719 261.022 54.2875 261.969 58.3906 263.547 65.3344 255.341 68.175 255.341 68.175 255.341 68.175 231.669 67.5437 229.459 65.9656 226.303 63.7563 229.144 49.2375 222.2 43.8719 219.359 41.6625 213.994 41.3469 209.259 41.6625 207.997 35.0344 202.947 15.7812 184.325 8.8375 183.694 8.52188 182.747 8.8375 182.431 9.78437 182.116 10.1 182.431 10.7313 182.431 11.0469 185.903 16.4125 194.425 30.9313 193.478 37.5594 190.006 36.9281 178.328 33.7719 171.069 13.5719 171.069 12.9406 170.438 12.625 169.806 12.625 169.175 12.625 168.859 12.625 168.544 13.2562 168.544 13.5719 156.866 28.7219 171.069 49.8688 171.384 50.1844 171.069 50.5 170.753 50.5 163.809 46.3969 158.759 40.0844 155.603 32.5094 155.288 31.8781 154.656 31.5625 154.025 31.5625 153.394 31.5625 152.763 31.8781 152.763 32.5094 152.447 33.1406 148.028 53.3406 158.444 64.7031 158.759 65.0188 158.444 65.3344 158.128 65.3344 152.131 62.4937 145.188 60.6 138.559 59.9688 136.981 57.7594 135.403 55.8656 134.772 54.9187 130.038 49.5531 124.041 45.7656 117.097 43.8719 116.15 43.5563 115.203 43.8719 114.888 44.8187 114.256 45.45 114.256 46.7125 114.888 47.3438 117.413 51.1313 118.991 55.8656 118.991 60.2844 114.888 60.9156 110.784 61.5469 106.681 62.8094 104.788 61.5469 103.209 60.2844 102.263 59.9688 96.5813 56.4969 89.9531 54.9187 83.325 55.2344 82.3781 55.2344 81.7469 55.8656 81.4312 56.8125 81.1156 57.7594 81.4312 58.3906 82.0625 59.0219 85.85 61.8625 88.375 65.9656 89.6375 70.3844 86.1656 72.5938 83.0094 74.8031 80.1687 77.6438 77.9594 77.0125 75.4344 76.3813 74.4875 76.0656 67.8594 74.8031 61.2312 75.4344 54.9187 77.9594 54.2875 78.275 53.6562 79.2219 53.6562 79.8531 53.6562 80.8 54.2875 81.4312 55.2344 81.7469 60.6 83.6406 65.3344 87.4281 68.175 92.4781 65.9656 96.5813 64.7031 100.684 63.7563 105.103 62.4937 105.419 61.5469 105.419 61.2312 105.734 54.6031 107.312 48.9219 110.469 44.1875 115.203 43.5563 115.834 43.5563 116.781 43.8719 117.413 44.1875 118.044 45.1344 118.675 46.0813 118.675 53.6562 118.044 60.9156 121.2 65.9656 126.881 66.9125 129.722 67.8594 132.247 69.1219 135.087 68.8062 135.403 68.8062 135.403 68.4906 135.719 63.7563 140.453 60.9156 146.45 59.6531 153.078 59.6531 154.025 59.9688 154.656 60.6 155.288 61.2312 155.603 62.1781 155.603 63.125 154.972 67.8594 151.184 74.1719 149.291 80.1687 149.922 83.325 152.763 86.4812 155.603 90.2688 157.812 88.0594 163.809 87.1125 170.122 88.375 176.434 88.6906 177.381 89.3219 178.013 89.9531 178.013 90.9 178.013 91.5312 177.697 92.1625 177.066 95.3188 172.016 100.053 168.228 105.734 166.65 109.522 168.228 113.309 169.806 117.097 171.384 116.466 176.75 117.413 182.116 119.306 186.85 119.622 187.797 120.569 188.112 121.2 188.112 122.147 188.112 122.778 187.481 123.094 186.534 124.672 182.431 127.513 178.644 130.984 175.803 135.087 177.066 139.506 178.328 143.609 179.591 143.609 184.641 144.872 189.375 147.081 194.109 147.397 194.741 148.344 195.372 149.291 195.056 150.237 195.056 150.869 194.425 151.184 193.478 152.131 189.691 154.341 186.219 157.181 183.378 161.916 184.641 166.65 185.903 171.069 187.481 170.438 191.9 170.753 196.634 172.016 201.053 172.331 201.684 172.962 202.316 173.594 202.316 174.225 202.316 175.172 202 175.172 201.053 176.75 197.266 179.591 193.794 183.378 191.584 189.059 193.478 194.109 196.319 199.159 199.475 196.95 201.369 194.741 203.263 193.163 205.787 192.847 206.419 192.847 207.366 193.163 207.997 193.794 208.628 194.425 208.944 195.372 208.628 198.844 207.681 202.631 207.681 206.103 208.628 206.734 211.153 206.734 213.994 206.103 216.519 205.156 221.253 202 225.041 197.897 226.934 195.372 223.147 191.9 219.991 187.797 217.781 187.166 217.466 186.219 217.466 185.587 218.097 184.956 218.728 184.641 219.675 184.956 220.306 185.903 222.831 186.219 225.672 186.219 228.197 180.538 227.566 174.856 225.987 169.175 224.094 168.859 223.463 168.859 222.831 168.544 222.516 166.334 216.519 162.547 211.469 157.497 207.681 156.866 207.366 155.919 207.366 155.288 207.681 154.656 208.312 154.341 208.944 154.341 209.891 154.972 212.731 154.972 215.888 154.341 219.044 148.975 216.834 143.609 214.625 137.928 212.731 137.928 212.416 137.612 212.1 137.612 212.1 135.403 206.103 131.616 201.053 126.566 196.95 125.934 196.634 124.987 196.319 124.356 196.95 123.725 197.581 123.409 198.212 123.409 199.159 124.041 202 124.041 204.841 123.409 207.681 117.728 205.787 112.047 204.209 106.366 202.947 105.734 202 105.419 201.369 105.103 201.053 101 196.003 95.95 192.531 89.9531 190.322 89.3219 190.006 88.375 190.322 87.7437 190.953 87.1125 191.584 87.1125 192.531 87.7437 193.163 89.3219 195.688 90.2688 198.212 90.5844 201.053 84.9031 201.053 79.2219 201.684 73.5406 203.263 72.9094 202.947 72.5938 202.631 72.2781 202.316 66.5969 199.475 60.2844 198.212 53.9719 198.528 53.025 198.528 52.3938 199.159 52.3938 200.106 52.0781 201.053 52.3938 201.684 53.3406 202.316 55.8656 204.209 57.7594 206.419 59.3375 208.944 54.9187 211.469 50.8156 214.941 47.3438 218.728 41.6625 218.728 36.2969 219.991 31.5625 222.831 30.9313 223.147 30.6156 224.094 30.6156 224.725 30.9313 225.672 31.5625 226.303 32.1937 226.303 35.0344 226.934 37.5594 227.881 39.7688 229.459 36.9281 234.825 35.0344 240.822 34.0875 246.819L33.7719 246.819C15.7812 249.975 20.8312 273.963 22.0938 279.013 22.0938 279.328 22.4094 279.328 22.725 279.013 24.9344 273.963 28.0906 269.544 32.5094 266.388 31.8781 268.597 31.5625 270.806 31.2469 273.016 30.3 281.222 31.8781 289.112 35.6656 296.372 41.6625 289.428 45.45 284.378 47.0281 275.225 47.3438 273.016 47.6594 270.491 47.6594 268.281 51.1313 272.7 53.025 277.75 53.6562 283.116 53.6562 283.431 53.9719 283.431 54.2875 283.116 56.8125 278.381 69.1219 254.709 49.2375 247.766 59.9688 231.037 78.275 223.147 102.578 229.144 129.406 236.403 149.291 256.603 182.431 261.969 220.938 268.281 244.294 243.347 248.713 220.306 253.763 194.109 237.981 170.753 203.894 157.181 161.6 140.453 112.362 134.141 120.569 110.153 127.513 89.0063 195.056 100.684 199.475 104.788L219.675 119.306C216.519 126.881 209.575 132.247 201.684 133.509 201.369 133.509 201.369 134.141 201.684 134.141 206.103 135.087 219.044 137.297 227.25 127.828 227.25 127.828 231.353 132.562 220.622 140.769 220.306 141.084 220.622 141.4 220.938 141.4 225.041 140.769 237.666 137.612 242.084 125.303 244.294 124.987 246.503 123.409 247.134 121.2 247.45 119.622 247.766 118.044 247.766 116.15 247.766 115.203 247.45 114.256 246.819 113.625 243.978 109.837 234.194 108.575 225.356 104.472L225.041 104.472C222.2 102.578 219.675 100.369 217.466 97.8438 214.625 93.1094 215.572 88.6906 219.991 90.2688 226.934 92.7937 226.619 89.3219 232.931 86.7969 238.612 87.1125 244.609 87.7437 250.291 89.0063L247.45 96.5813C247.134 97.2125 247.45 97.8438 248.081 97.8438 248.397 97.8438 248.713 97.8438 249.028 97.5281L256.919 89.9531C257.234 89.9531 258.497 90.2688 258.812 90.2688 260.391 90.5844 262.916 87.4281 264.809 83.6406 266.072 81.1156 266.388 78.275 266.388 75.4344 271.122 71.6469 279.328 64.7031 278.381 56.1812ZM205.156 63.125C201.369 59.3375 201.369 53.3406 205.156 49.8688 205.156 49.8688 205.156 49.8688 205.156 49.8688L218.412 63.4406C214.625 66.9125 208.628 66.9125 205.156 63.125Z" fill="#FF0000" transform="matrix(1 0 0 1.0033 647 136)"/></g></svg>