<svg width="304" height="303" xmlns="http://www.w3.org/2000/svg" xmlns:xlink="http://www.w3.org/1999/xlink" xml:space="preserve" overflow="hidden"><g transform="translate(-299 -117)"><path d="M274.594 95.4766 269.115 95.4766 259.942 88.1383C257.981 86.5892 255.789 85.357 253.447 84.4865 253.488 75.625 249.211 67.2991 241.983 62.1718 238.065 59.3416 233.483 57.5697 228.68 57.0271 227.97 56.9627 227.302 57.3705 227.035 58.0308 226.778 58.699 227.002 59.4568 227.581 59.8772 234.446 64.8357 240.623 74.396 240.579 82.8516L235.339 82.8516C231.183 72.5919 221.158 65.9319 210.089 66.0761 205.256 66.0732 200.504 67.3193 196.294 69.6932 195.533 70.1199 195.263 71.0819 195.69 71.8419 195.97 72.3406 196.498 72.649 197.07 72.6474 205.846 72.7064 214.204 76.4011 220.155 82.8516L206.734 82.8516C202.812 82.8516 199.633 86.0312 199.633 89.9531 199.633 93.8751 202.812 97.0547 206.734 97.0547L206.958 97.0547 210.143 102.471C211.446 104.722 211.735 107.419 210.939 109.894 207.148 124.764 206.408 140.247 208.761 155.411 208.969 156.989 209.206 158.567 209.458 160.11 210.093 163.893 209.1 167.767 206.725 170.778 204.693 173.364 201.754 175.079 198.503 175.576 191.184 159.776 180.935 128.485 179.919 110.349L179.815 108.67C178.839 90.2362 182.132 71.8265 189.438 54.8746 189.761 54.0839 189.633 53.1806 189.104 52.5105 173.127 32.2727 138.149 24.3031 102.07 32.6703 65.2302 41.2175 36.42 64.4064 30.3789 90.3729 30.0437 91.8071 30.9348 93.2416 32.3692 93.5768 33.0396 93.7337 33.7447 93.6248 34.3368 93.2735 40.8283 89.4421 47.8702 86.6309 55.2154 84.9378 68.175 81.9362 76.2045 80.3487 85.8311 83.224 68.1198 94.5701 57.071 113.855 56.2412 134.873 56.1835 135.949 56.7907 136.951 57.772 137.398 58.7561 137.779 59.8712 137.57 60.6505 136.858 65.9167 131.61 71.9694 127.215 78.5906 123.832 86.8758 120.155 90.8337 119.221 98.3519 120.117 84.3378 132.743 79.1853 152.5 85.2472 170.362 85.5782 171.381 86.4923 172.099 87.5607 172.18 88.6142 172.196 89.5936 171.64 90.1204 170.728 94.4322 163.293 100.452 156.991 107.682 152.343 109.378 151.21 111.174 150.234 113.047 149.426 119.817 146.749 127.48 150.032 130.211 156.78 131.348 159.358 131.178 162.325 129.753 164.756 106.362 162.368 85.463 179.395 83.075 202.787 82.9283 204.223 82.8547 205.666 82.8547 207.11L82.8547 211.671C83.0599 222.728 76.1392 232.666 65.6973 236.308 59.0389 238.627 51.6691 237.568 45.9329 233.468 40.3905 229.449 37.1055 223.021 37.0954 216.175L37.0954 187.402 46.9145 180.039C48.8587 178.593 49.6276 176.045 48.8083 173.764L35.8045 137.392C34.9662 135.05 32.3879 133.831 30.046 134.669 28.7769 135.123 27.778 136.122 27.3237 137.392L14.3357 173.764C13.5183 176.045 14.287 178.591 16.2294 180.039L25.9949 187.361 24.6188 218.87C23.6496 241.247 41.0038 260.173 63.3807 261.142 63.9642 261.167 64.5481 261.18 65.1324 261.18L71.4796 261.18C92.4844 261.18 109.26 243.934 109.67 221.922 109.815 213.896 116.439 207.507 124.465 207.652 125.409 207.669 126.349 207.778 127.273 207.978L123.169 238.625C123.013 239.81 123.08 241.013 123.368 242.173L129.681 267.423C130.736 271.64 134.528 274.598 138.875 274.594L160.969 274.594C166.198 274.594 170.438 270.355 170.438 265.125 170.438 259.895 166.198 255.656 160.969 255.656L146.27 255.656 142.41 240.21C147.127 237.195 151.077 233.125 153.949 228.32 156.471 223.386 158.379 218.161 159.63 212.763 159.986 211.056 161.658 209.961 163.364 210.317 165.071 210.673 166.166 212.345 165.81 214.051 165.802 214.092 165.792 214.133 165.782 214.174 164.99 217.524 163.967 220.815 162.72 224.024L172.574 228.601C183.868 233.818 195.941 237.146 208.312 238.452L208.312 265.125C208.312 270.355 212.552 274.594 217.781 274.594L239.875 274.594C245.105 274.594 249.344 270.355 249.344 265.125 249.344 259.895 245.105 255.656 239.875 255.656L227.25 255.656 227.25 238.9C234.274 238.183 240.838 235.073 245.84 230.091 251.643 224.349 254.897 216.517 254.87 208.354 254.883 191.347 251.637 174.495 245.31 158.709L243.347 153.785C242.631 151.999 242.26 150.094 242.252 148.17 242.244 147.163 242.639 146.195 243.35 145.481 244.036 144.787 244.972 144.397 245.948 144.398L270.134 144.398C275.65 144.393 280.121 139.922 280.127 134.406L280.127 132.562C280.127 131.255 279.067 130.195 277.759 130.195L251.847 130.195C252.776 123.858 258.208 119.157 264.614 119.148L287.219 119.148C288.526 119.148 289.586 118.089 289.586 116.781L289.586 110.469C289.576 102.193 282.869 95.487 274.594 95.4766ZM245.43 106.997C241.351 103.725 240.697 97.7661 243.969 93.687L258.743 105.532C255.473 109.613 249.513 110.27 245.433 106.999 245.432 106.998 245.431 106.998 245.43 106.997Z" fill="#002060" transform="matrix(1.0033 0 0 1 299 117)"/></g></svg>