<svg width="22" height="24" viewBox="0 0 22 24" fill="none" xmlns="http://www.w3.org/2000/svg">
<path d="M20.9287 18.9616H18.7858V16.8188C18.7858 16.7009 18.6894 16.6045 18.5715 16.6045H17.2858C17.168 16.6045 17.0715 16.7009 17.0715 16.8188V18.9616H14.9287C14.8108 18.9616 14.7144 19.0581 14.7144 19.1759V20.4616C14.7144 20.5795 14.8108 20.6759 14.9287 20.6759H17.0715V22.8188C17.0715 22.9366 17.168 23.0331 17.2858 23.0331H18.5715C18.6894 23.0331 18.7858 22.9366 18.7858 22.8188V20.6759H20.9287C21.0465 20.6759 21.143 20.5795 21.143 20.4616V19.1759C21.143 19.0581 21.0465 18.9616 20.9287 18.9616ZM7.04029 11.6331C7.01618 11.4 7.00279 11.1643 7.00279 10.9259C7.00279 10.5 7.04297 10.0848 7.11797 9.68038C7.13672 9.58395 7.08582 9.48484 6.99743 9.44466C6.63314 9.28127 6.29832 9.05627 6.00904 8.77234C5.66816 8.44183 5.39993 8.04388 5.22144 7.6039C5.04296 7.16392 4.95815 6.69157 4.97243 6.21698C4.99654 5.35716 5.34207 4.5402 5.94475 3.92413C6.60636 3.24645 7.49564 2.87681 8.44118 2.88752C9.29564 2.89556 10.1206 3.22502 10.7448 3.80895C10.9564 4.00716 11.1385 4.22681 11.2912 4.46252C11.3448 4.54556 11.4492 4.58038 11.5403 4.54823C12.0117 4.38484 12.5099 4.26966 13.0215 4.21609C13.1715 4.20002 13.2573 4.03931 13.1903 3.90538C12.3198 2.18306 10.5412 0.99377 8.48404 0.961627C5.51618 0.916091 3.04118 3.35091 3.04118 6.31877C3.04118 8.00091 3.81529 9.50091 5.02868 10.4839C4.17689 10.8777 3.39207 11.4214 2.71172 12.1018C1.24386 13.567 0.413502 15.5009 0.35993 17.5661C0.359215 17.5947 0.36423 17.6231 0.374678 17.6497C0.385127 17.6764 0.400797 17.7006 0.420767 17.7211C0.440737 17.7416 0.464602 17.7578 0.490956 17.7689C0.51731 17.78 0.545619 17.7857 0.574216 17.7857H2.07689C2.19207 17.7857 2.2885 17.6947 2.29118 17.5795C2.34207 16.0259 2.97154 14.5714 4.07779 13.4679C4.86529 12.6804 5.82957 12.1339 6.88225 11.8688C6.98404 11.8393 7.05368 11.7402 7.04029 11.6331ZM19.1073 10.9259C19.1073 7.99556 16.7528 5.61431 13.8331 5.56877C10.8653 5.52323 8.39297 7.95806 8.39297 10.9259C8.39297 12.6081 9.16975 14.1081 10.3805 15.0911C9.51986 15.49 8.73641 16.0377 8.06618 16.7089C6.59832 18.1741 5.76797 20.1081 5.71439 22.1706C5.71368 22.1991 5.71869 22.2276 5.72914 22.2542C5.73959 22.2808 5.75526 22.3051 5.77523 22.3256C5.7952 22.346 5.81907 22.3623 5.84542 22.3734C5.87177 22.3845 5.90008 22.3902 5.92868 22.3902H7.42868C7.54386 22.3902 7.64029 22.2991 7.64297 22.1839C7.69386 20.6304 8.32332 19.1759 9.42957 18.0723C10.584 16.9179 12.1162 16.2831 13.7501 16.2831C16.7073 16.2831 19.1073 13.8857 19.1073 10.9259ZM16.1742 13.35C15.526 13.9982 14.6662 14.3545 13.7501 14.3545C12.834 14.3545 11.9742 13.9982 11.326 13.35C11.0025 13.0282 10.747 12.6448 10.5744 12.2224C10.4019 11.8 10.3159 11.3473 10.3215 10.8911C10.3296 10.0125 10.6805 9.16341 11.2939 8.53395C11.9367 7.87502 12.7965 7.50806 13.7153 7.49734C14.6233 7.48931 15.5046 7.84288 16.1528 8.4777C16.8171 9.12859 17.1814 9.99913 17.1814 10.9259C17.1787 11.842 16.8224 12.7018 16.1742 13.35Z" fill="#9E9E9E"/>
</svg>
