<svg width="36" height="36" viewBox="0 0 36 36" fill="none" xmlns="http://www.w3.org/2000/svg">
<rect opacity="0.12" width="36" height="36" rx="12" fill="#DF1D1D"/>
<path fill-rule="evenodd" clip-rule="evenodd" d="M14.7484 9.50322C16.7967 8.31307 19.3144 8.33387 21.3435 9.55771C23.3526 10.8065 24.5737 13.0352 24.5623 15.4326C24.5156 17.8143 23.2062 20.0531 21.5695 21.7838C20.6248 22.7872 19.5681 23.6745 18.4208 24.4275C18.3026 24.4959 18.1732 24.5416 18.0389 24.5625C17.9096 24.557 17.7837 24.5188 17.6726 24.4514C15.921 23.3199 14.3844 21.8757 13.1366 20.1881C12.0924 18.7794 11.4992 17.0775 11.4375 15.3135C11.4361 12.9115 12.7001 10.6934 14.7484 9.50322ZM15.932 16.3076C16.2766 17.157 17.0899 17.7111 17.9921 17.7111C18.5832 17.7153 19.1514 17.4785 19.5701 17.0535C19.9888 16.6285 20.2233 16.0506 20.2212 15.4484C20.2243 14.5294 19.6832 13.699 18.8506 13.3451C18.0179 12.9911 17.0579 13.1834 16.4187 13.8322C15.7796 14.4809 15.5875 15.4581 15.932 16.3076Z" fill="#DF1D1D"/>
<path opacity="0.4" d="M18 27.375C20.5888 27.375 22.6875 26.9553 22.6875 26.4375C22.6875 25.9197 20.5888 25.5 18 25.5C15.4112 25.5 13.3125 25.9197 13.3125 26.4375C13.3125 26.9553 15.4112 27.375 18 27.375Z" fill="#DF1D1D"/>
</svg>
