<svg width="24" height="24" viewBox="0 0 24 24" fill="none" xmlns="http://www.w3.org/2000/svg">
<path d="M6.89653 14.1284C6.97957 14.2115 7.11618 14.2115 7.19921 14.1284L9.926 11.4017L12.2322 13.7106C12.3153 13.7936 12.4519 13.7936 12.5349 13.7106L18.5965 7.64363C18.6796 7.56059 18.6796 7.42398 18.5965 7.34095L17.6108 6.35523C17.5705 6.31535 17.5162 6.29298 17.4595 6.29298C17.4028 6.29298 17.3484 6.31535 17.3081 6.35523L12.3849 11.2838L10.0787 8.97488C10.0384 8.935 9.98402 8.91263 9.92734 8.91263C9.87066 8.91263 9.81627 8.935 9.776 8.97488L5.91082 12.8401C5.87094 12.8803 5.84857 12.9347 5.84857 12.9914C5.84857 13.0481 5.87094 13.1025 5.91082 13.1427L6.89653 14.1284Z" fill="#9E9E9E"/>
<path d="M22.7487 2.57304H13.213V0.858756C13.213 0.740899 13.1166 0.64447 12.9987 0.64447H11.4987C11.3809 0.64447 11.2845 0.740899 11.2845 0.858756V2.57304H1.74874C1.27464 2.57304 0.891602 2.95608 0.891602 3.43018V17.3588C0.891602 17.8329 1.27464 18.2159 1.74874 18.2159H11.2952V19.073L6.88089 21.9686C6.85742 21.9838 6.8372 22.0035 6.8214 22.0266C6.80559 22.0497 6.7945 22.0757 6.78877 22.1031C6.78305 22.1305 6.7828 22.1587 6.78803 22.1862C6.79327 22.2137 6.80389 22.2399 6.81928 22.2632L7.63089 23.5275V23.5302C7.69517 23.6293 7.8291 23.6561 7.92821 23.5918L12.2487 20.7579L16.5693 23.5918C16.6684 23.6561 16.8023 23.6293 16.8666 23.5302V23.5275L17.6782 22.2632C17.7087 22.2159 17.7194 22.1584 17.7079 22.1033C17.6963 22.0481 17.6635 21.9997 17.6166 21.9686L13.213 19.0811V18.2159H22.7487C23.2229 18.2159 23.6059 17.8329 23.6059 17.3588V3.43018C23.6059 2.95608 23.2229 2.57304 22.7487 2.57304ZM21.6773 16.2873H2.82017V4.50161H21.6773V16.2873Z" fill="#9E9E9E"/>
</svg>
